<?xml version="1.0" encoding="UTF-8" standalone="no"?>
<!-- Created with Inkscape (http://www.inkscape.org/) -->

<svg
   width="60.707401mm"
   height="60.232025mm"
   viewBox="0 0 60.707401 60.232025"
   version="1.1"
   id="svg5"
   inkscape:version="1.1.2 (b8e25be833, 2022-02-05)"
   sodipodi:docname="Boston Dynamics (Icon).svg"
   xmlns:inkscape="http://www.inkscape.org/namespaces/inkscape"
   xmlns:sodipodi="http://sodipodi.sourceforge.net/DTD/sodipodi-0.dtd"
   xmlns="http://www.w3.org/2000/svg"
   xmlns:svg="http://www.w3.org/2000/svg">
  <sodipodi:namedview
     id="namedview7"
     pagecolor="#ffffff"
     bordercolor="#666666"
     borderopacity="1.0"
     inkscape:pageshadow="2"
     inkscape:pageopacity="0.0"
     inkscape:pagecheckerboard="0"
     inkscape:document-units="mm"
     showgrid="false"
     inkscape:zoom="0.64052329"
     inkscape:cx="-89.77035"
     inkscape:cy="368.44874"
     inkscape:window-width="1920"
     inkscape:window-height="1017"
     inkscape:window-x="-8"
     inkscape:window-y="-8"
     inkscape:window-maximized="1"
     inkscape:current-layer="layer1" />
  <defs
     id="defs2">
    <style
       id="style10">.cls-1,.cls-3{fill:#2e95c9;}.cls-1,.cls-2{fill-rule:evenodd;}.cls-2,.cls-4{fill:#0b314f;}</style>
  </defs>
  <g
     inkscape:label="Layer 1"
     inkscape:groupmode="layer"
     id="layer1"
     transform="translate(-128.95993,-51.009715)">
    <g
       id="g70"
       transform="matrix(0.52239396,0,0,0.52239396,-69.779628,47.164895)"
       style="stroke-width:1.6403">
      <path
         id="path16"
         d="M 425.3,23.91 C 414.14,19.19 397.55,10.56 391.48,7.36 h -11 v 92.47 a 29.73,29.73 0 0 0 7.73,-5.67 c 11.5,-13.35 24.4,-25.34 35.95,-28.14 2.83,-1.86 4.43,1.82 4.43,1.82 A 54.13,54.13 0 0 0 432.48,55 c 1.17,-6.58 1.55,-14.21 2.16,-20.11 C 435.16,29.82 436,26 436,26 c 0,0 -4,0.75 -10.7,-2.09 z M 481.08,7.36 c -1.67,4.39 -5.42,13.81 -6.9,13.91 -0.92,0.07 -4.52,-1.85 -7.61,-5.62 a 53.55,53.55 0 0 1 -5.33,-8.29 h -39.8 c 4.34,1.23 11.56,1.82 20.36,6.64 10.66,5.79 21.83,16.09 28.75,19.66 a 18.9,18.9 0 0 0 6.52,2.12 c 0,0 2.07,-3.86 3.45,-4.68 1.13,-0.68 12.2,3.56 16.13,5.1 V 7.36 Z"
         class="cls-1"
         inkscape:connector-curvature="0"
         style="fill:#2e95c9;fill-rule:evenodd;stroke-width:1.6403" />
      <path
         id="path18"
         d="m 449.93,97 a 90.15,90.15 0 0 1 -20,-4.1 31.73,31.73 0 0 0 3.21,-3.52 12.93,12.93 0 0 0 1.47,-2.68 l -0.69,-0.69 a 223.67,223.67 0 0 1 -23.59,17.28 225.18,225.18 0 0 1 -29.89,15.11 v 4.26 h 89 c 1.17,-3.94 4.67,-15.36 7.68,-21.31 1.26,-2.5 4.87,-2.94 4.87,-2.94 l -0.14,-1.1 A 277.17,277.17 0 0 1 449.93,97 Z m 36.8,-50.69 c -6,-0.75 -12.82,-2 -12.82,-2 0,0 -5.27,6.69 -10.91,13.27 -6.5,7.59 -13.49,15.21 -13.49,15.21 l 47.14,13.48 V 47 a 97.5,97.5 0 0 1 -9.92,-0.68 z m 9.92,76.35 v -21.6 l -13.08,21.6 z"
         class="cls-2"
         inkscape:connector-curvature="0"
         style="fill:#0b314f;fill-rule:evenodd;stroke-width:1.6403" />
    </g>
  </g>
</svg>
